HIERARCHY
ROOT Hips
{
	OFFSET 0.000000 0.000000 0.000000
	CHANNELS 6 Xposition Yposition Zposition Zrotation Yrotation Xrotation 
	JOINT LHipJoint
	{
		OFFSET 0.000000 0.000000 0.000000
		CHANNELS 3 Zrotation Yrotation Xrotation
		JOINT LeftUpLeg
		{
			OFFSET 1.363060 -1.794630 0.839290
			CHANNELS 3 Zrotation Yrotation Xrotation
			JOINT LeftLeg
			{
				OFFSET 2.448110 -6.726130 0.000000
				CHANNELS 3 Zrotation Yrotation Xrotation
				JOINT LeftFoot
				{
					OFFSET 2.562200 -7.039590 0.000000
					CHANNELS 3 Zrotation Yrotation Xrotation
					JOINT LeftToeBase
					{
						OFFSET 0.157640 -0.433110 2.322550
						CHANNELS 3 Zrotation Yrotation Xrotation
						End Site
						{
							OFFSET 0.000000 0.000000 0.000000
						}
					}
				}
			}
		}
	}
	JOINT RHipJoint
	{
		OFFSET 0.000000 0.000000 0.000000
		CHANNELS 3 Zrotation Yrotation Xrotation
		JOINT RightUpLeg
		{
			OFFSET -1.305520 -1.794630 0.839290
			CHANNELS 3 Zrotation Yrotation Xrotation
			JOINT RightLeg
			{
				OFFSET -2.542530 -6.985550 0.000000
				CHANNELS 3 Zrotation Yrotation Xrotation
				JOINT RightFoot
				{
					OFFSET -2.568260 -7.056230 0.000000
					CHANNELS 3 Zrotation Yrotation Xrotation
					JOINT RightToeBase
					{
						OFFSET -0.164730 -0.452590 2.363150
						CHANNELS 3 Zrotation Yrotation Xrotation
						End Site
						{
							OFFSET 0.000000 0.000000 0.000000
						}
					}
				}
			}
		}
	}
	JOINT LowerBack
	{
		OFFSET 0.000000 0.000000 0.000000
		CHANNELS 3 Zrotation Yrotation Xrotation
		JOINT Spine
		{
			OFFSET 0.028270 2.035590 -0.193380
			CHANNELS 3 Zrotation Yrotation Xrotation
			JOINT Spine1
			{
				OFFSET 0.056720 2.048850 -0.042750
				CHANNELS 3 Zrotation Yrotation Xrotation
				JOINT Neck
				{
					OFFSET 0.000000 0.000000 0.000000
					CHANNELS 3 Zrotation Yrotation Xrotation
					JOINT Neck1
					{
						OFFSET -0.054170 1.746240 0.172020
						CHANNELS 3 Zrotation Yrotation Xrotation
						JOINT Head
						{
							OFFSET 0.104070 1.761360 -0.123970
							CHANNELS 3 Zrotation Yrotation Xrotation
							End Site
							{
								OFFSET 0.000000 0.000000 0.000000
							}
						}
					}
				}
				JOINT LeftShoulder
				{
					OFFSET 0.000000 0.000000 0.000000
					CHANNELS 3 Zrotation Yrotation Xrotation
					JOINT LeftArm
					{
						OFFSET 3.362410 1.200890 -0.311210
						CHANNELS 3 Zrotation Yrotation Xrotation
						JOINT LeftForeArm
						{
							OFFSET 4.983000 -0.000000 -0.000000
							CHANNELS 3 Zrotation Yrotation Xrotation
							JOINT LeftHand
							{
								OFFSET 3.483560 -0.000000 -0.000000
								CHANNELS 3 Zrotation Yrotation Xrotation
								JOINT LeftFingerBase
								{
									OFFSET 0.000000 0.000000 0.000000
									CHANNELS 3 Zrotation Yrotation Xrotation
									JOINT LeftHandIndex1
									{
										OFFSET 0.715260 -0.000000 -0.000000
										CHANNELS 3 Zrotation Yrotation Xrotation
										End Site
										{
											OFFSET 0.000000 0.000000 0.000000
										}
									}
								}
								JOINT LThumb
								{
									OFFSET 0.000000 0.000000 0.000000
									CHANNELS 3 Zrotation Yrotation Xrotation
									End Site
									{
										OFFSET 0.000000 0.000000 0.000000
									}
								}
							}
						}
					}
				}
				JOINT RightShoulder
				{
					OFFSET 0.000000 0.000000 0.000000
					CHANNELS 3 Zrotation Yrotation Xrotation
					JOINT RightArm
					{
						OFFSET -3.136600 1.374050 -0.404650
						CHANNELS 3 Zrotation Yrotation Xrotation
						JOINT RightForeArm
						{
							OFFSET -5.241900 -0.000000 -0.000000
							CHANNELS 3 Zrotation Yrotation Xrotation
							JOINT RightHand
							{
								OFFSET -3.444170 -0.000000 -0.000000
								CHANNELS 3 Zrotation Yrotation Xrotation
								JOINT RightFingerBase
								{
									OFFSET 0.000000 0.000000 0.000000
									CHANNELS 3 Zrotation Yrotation Xrotation
									JOINT RightHandIndex1
									{
										OFFSET -0.622530 -0.000000 -0.000000
										CHANNELS 3 Zrotation Yrotation Xrotation
										End Site
										{
											OFFSET 0.000000 0.000000 0.000000
										}
									}
								}
								JOINT RThumb
								{
									OFFSET 0.000000 0.000000 0.000000
									CHANNELS 3 Zrotation Yrotation Xrotation
									End Site
									{
										OFFSET 0.000000 0.000000 0.000000
									}
								}
							}
						}
					}
				}
			}
		}
	}
}
MOTION
Frames: 6
Frame Time: 0.008333
11.326582 17.685407 8.424449 132.714669 15.212796 -59.607435 0.527656 3.050689 2.332168 6.729856 8.833729 3.330085 -0.452700 -0.273856 1.843215 -3.673863 15.632323 -5.813896 0.071900 1.729700 4.759100 -4.894733 -1.001557 -3.374640 -27.633879 -9.950856 -80.286153 -8.206666 -17.756761 53.846651 1.782144 -15.036822 -11.225344 -0.185700 2.775700 -7.654900 10.871576 -2.078114 19.670998 1.516889 0.139562 -4.966421 0.764816 -0.094730 -4.947178 -3.706795 -4.222215 -19.873780 0.997897 -6.341264 -6.705372 -2.487100 -4.429300 0.278800 5.925774 -13.052428 1.948501 20.526926 25.808560 -29.461828 23.034067 -30.328284 -9.343632 1.456670 -0.028069 133.336446 16.601883 -1.505960 -0.828700 -7.125000 0.000000 0.000000 -6.900300 27.218200 3.000400 -2.587259 12.963058 3.261605 -43.699339 9.321164 -103.715160 -5.258626 15.834764 -0.087657 0.998447 -5.484183 33.863826 -86.522114 47.577049 -90.453200 7.125000 0.000000 0.000000 -156.680000 59.486000 -171.466600 
11.434705 17.811742 8.081869 133.312286 17.174927 -58.031636 0.774399 3.155967 2.195094 8.326109 10.442856 0.935207 -0.273064 -0.284599 1.838580 -3.550558 14.916757 -5.361842 0.048000 1.413800 3.888200 -4.945306 -0.981440 -3.398451 -24.384510 -8.889167 -77.480126 -8.595757 -18.079090 55.212846 1.843134 -15.049890 -9.907493 -0.182500 2.751600 -7.587900 9.367696 -1.998341 20.170039 1.420791 -0.015505 -5.004370 0.786313 -0.143821 -5.315523 -3.992377 -4.184320 -19.944101 1.045346 -6.174713 -6.655784 -2.409900 -4.317700 0.460600 5.817268 -13.079441 1.855628 20.142657 26.778276 -29.241852 22.715051 -29.927278 -9.115286 1.520311 0.022696 133.330216 17.411262 -1.960692 -1.029300 -7.125000 0.000000 0.000000 -6.199100 26.718500 2.765100 -2.667178 13.021013 3.214739 -43.300391 8.693529 -102.826710 -5.517823 16.146158 -0.207279 1.118690 -5.496734 32.620714 -87.782725 47.404010 -92.235700 7.125000 0.000000 0.000000 -157.217700 58.343600 -172.307100 
11.536141 17.922516 7.721423 134.061281 19.286046 -56.557349 1.018121 3.180399 2.017635 9.457267 12.157905 -1.436438 -0.151783 -0.325942 1.835234 -2.273631 10.232479 -5.044259 0.186300 2.779900 7.666600 -4.984037 -0.915734 -3.437084 -22.188562 -7.480121 -73.086822 -8.486316 -18.069309 54.887904 1.898902 -15.255579 -10.374010 -0.194700 2.841700 -7.838200 7.436860 -1.784764 20.664113 1.315455 -0.136984 -4.999346 0.993494 -0.169260 -5.458250 -4.081409 -4.121607 -20.032887 0.910781 -6.055291 -6.736151 -2.492700 -4.279900 0.481100 5.729948 -13.052399 1.816967 19.638044 27.358771 -29.735168 22.282548 -29.364968 -8.824648 1.591842 0.024638 133.863285 17.635793 -2.380056 -1.202000 -7.125000 0.000000 0.000000 -5.963300 26.232100 2.727200 -2.678653 12.998430 3.156679 -42.712172 7.900111 -100.654096 -5.997975 16.714147 -0.404440 1.340820 -5.432331 30.191515 -89.038822 47.211732 -93.977100 7.125000 0.000000 0.000000 -157.742800 57.217300 -173.108200 
11.636771 18.040206 7.413423 134.283409 21.974976 -53.598632 1.188503 2.953425 1.714295 9.611332 13.978669 -6.506651 -0.040019 -0.271477 1.606065 -1.638664 7.756154 -1.925897 0.121700 2.248800 6.193800 -4.965091 -0.843595 -3.344736 -20.835833 -7.104510 -69.023292 -7.933861 -17.658522 52.898400 2.171633 -16.458385 -9.141404 -0.083000 1.858100 -5.113700 5.267980 -1.683682 18.682218 1.262024 -0.786521 -5.151808 1.633895 -0.386394 -5.405872 -4.491833 -3.950449 -19.246736 0.696998 -5.825370 -6.710887 -2.443800 -4.138100 0.146400 5.582422 -12.968061 1.800977 18.978028 27.909640 -29.778394 21.871814 -28.812286 -8.560742 1.650687 -0.017724 134.423529 17.311030 -2.850752 -1.357200 -7.125000 0.000000 0.000000 -6.172100 25.683900 2.903200 -2.636787 12.880838 3.142259 -42.222407 7.749202 -98.189706 -6.506145 17.327691 -0.597150 1.526399 -5.257728 27.702029 -89.855500 47.203265 -94.985800 7.125000 0.000000 0.000000 -158.196600 56.567800 -173.605700 
11.733482 18.104641 7.095165 133.853203 24.944388 -53.602004 1.523332 2.888533 1.502709 10.459268 14.548226 -8.624444 0.045944 -0.272902 1.472235 -0.558646 3.904941 0.195564 0.137600 2.390500 6.586100 -5.024654 -0.747836 -3.354536 -19.901128 -5.865499 -60.957186 -7.139751 -17.012343 49.948313 2.336985 -17.012843 -8.774335 -0.057200 1.543300 -4.245000 3.185028 -2.028415 19.716494 1.223310 -1.634972 -5.134538 2.227642 -0.745664 -5.808250 -4.865166 -3.676079 -18.142298 0.445336 -5.532668 -7.100742 -2.392100 -3.980800 -0.404200 5.394729 -12.981662 1.852246 18.205826 28.557424 -30.119872 21.391799 -28.190583 -8.264421 1.691659 -0.014409 134.502515 17.272106 -3.028784 -1.424000 -7.125000 0.000000 0.000000 -6.169400 25.472100 2.932500 -2.597217 12.838329 3.179450 -41.670762 7.324246 -96.510390 -6.979666 17.885974 -0.769430 1.627100 -5.140959 26.054090 -90.446806 47.356770 -95.690200 7.125000 0.000000 0.000000 -158.700300 56.122300 -173.996700 
11.843219 18.210574 6.863589 134.660135 26.972430 -52.118884 1.922595 2.840294 1.197288 11.044550 16.940844 -11.616430 0.223361 -0.265614 1.282542 0.344169 0.702293 2.303115 0.235500 3.123000 8.621300 -5.007229 -0.695946 -3.295189 -18.795739 -3.845743 -54.551438 -6.116182 -16.114736 46.053106 2.668057 -18.412424 -7.017674 -0.105400 2.093700 -5.764500 1.109310 -1.731012 19.598099 1.084389 -1.783218 -5.125596 2.157603 -0.776989 -5.700812 -5.229739 -3.866855 -17.856476 0.564705 -5.713559 -7.167948 -2.223000 -4.022100 -0.554200 5.204288 -12.888540 1.817495 17.523174 29.247516 -30.624339 21.037030 -27.750484 -8.009086 1.714120 0.008415 134.032263 17.491690 -3.322427 -1.546100 -7.125000 0.000000 0.000000 -5.977900 25.148500 2.885800 -2.669321 12.783765 3.206447 -40.425552 6.343573 -94.077077 -7.566226 18.402977 -1.055759 1.840773 -5.133955 23.791961 -90.704237 47.289939 -96.102500 7.125000 0.000000 0.000000 -158.917400 55.858300 -174.199100 
